<?xml version="1.0" encoding="UTF-8"?>
<svg id="Layer_2" data-name="Layer 2" xmlns="http://www.w3.org/2000/svg" viewBox="0 0 196.74 58.63">
  <defs>
    <style>
      .cls-1, .cls-2, .cls-3, .cls-4 {
        fill: #0c2549;
      }

      .cls-1, .cls-5, .cls-6 {
        letter-spacing: 0em;
      }

      .cls-2, .cls-7 {
        font-family: Darkmode-DarkmodeOffXBold, Darkmode;
        font-size: 29.86px;
        font-weight: 700;
      }

      .cls-5, .cls-8, .cls-9, .cls-10 {
        fill: #f9c90c;
      }

      .cls-8 {
        letter-spacing: -.02em;
      }

      .cls-3 {
        letter-spacing: -.01em;
      }

      .cls-11 {
        letter-spacing: -.02em;
      }

      .cls-9 {
        letter-spacing: -.01em;
      }
    </style>
  </defs>
  <g id="Layer_1-2" data-name="Layer 1">
    <g>
      <g>
        <path class="cls-4" d="M79.03,41.82c-.82,0-1.48-.66-1.48-1.48v-5.31c0-.64-.26-1.22-.71-1.61-.81-.7-1.84-1.07-2.89-1.04-.97.02-1.86.38-2.66,1.07-.47.4-.73,1-.73,1.63,0,.82-.66,1.48-1.48,1.48s-1.48-.66-1.48-1.48c0-1.5.64-2.91,1.76-3.87,1.31-1.13,2.87-1.75,4.52-1.79,1.82-.06,3.53.58,4.9,1.76,1.1.95,1.74,2.35,1.74,3.85v5.31c0,.82-.66,1.48-1.48,1.48Z"/>
        <path class="cls-10" d="M74.05,36.86h0c-4.08,0-7.4,3.31-7.4,7.4h0c0,4.08,3.31,7.4,7.4,7.4h0c4.08,0,7.4-3.31,7.4-7.4h0c0-4.08-3.31-7.4-7.4-7.4ZM74.57,45.63v1.71c0,.13-.1.23-.23.23h-.57c-.13,0-.23-.1-.23-.23v-1.71c-.6-.22-1.04-.79-1.04-1.48,0-.87.7-1.57,1.56-1.57s1.56.7,1.56,1.57c0,.68-.43,1.26-1.04,1.48Z"/>
      </g>
      <g>
        <g>
          <g>
            <path class="cls-4" d="M33.01,41.38c1.65-.88,4.1-1.94,7.22-2.54,2.99-.57,5.56-.5,7.37-.32.71-2.06,1.43-4.12,2.14-6.18-1.9.05-5.7.42-9.75,2.7-3.71,2.09-5.91,4.81-6.98,6.34Z"/>
            <path class="cls-4" d="M31.11,46.71c1.36-.78,3.15-1.65,5.34-2.33,2-.62,3.8-.92,5.27-1.07,4.09-.07,8.18-.13,12.28-.2l2.91-2.59-15.53.26c-1.25.09-3.73.43-6.3,2.06-2.05,1.3-3.3,2.87-3.96,3.86Z"/>
            <path class="cls-4" d="M30.26,51.25h19.08l9.04-5.97h-17.39c-1.36.03-4.9.28-8.03,2.85-1.28,1.05-2.14,2.2-2.7,3.12Z"/>
          </g>
          <g>
            <path class="cls-4" d="M25.37,41.38c-1.65-.88-4.1-1.94-7.22-2.54-2.99-.57-5.56-.5-7.37-.32-.71-2.06-1.43-4.12-2.14-6.18,1.9.05,5.7.42,9.75,2.7,3.71,2.09,5.91,4.81,6.98,6.34Z"/>
            <path class="cls-4" d="M27.28,46.71c-1.36-.78-3.15-1.65-5.34-2.33-2-.62-3.8-.92-5.27-1.07-4.09-.07-8.18-.13-12.28-.2l-2.91-2.59,15.53.26c1.25.09,3.73.43,6.3,2.06,2.05,1.3,3.3,2.87,3.96,3.86Z"/>
            <path class="cls-4" d="M28.12,51.25H9.04L0,45.27h17.39c1.36.03,4.9.28,8.03,2.85,1.28,1.05,2.14,2.2,2.7,3.12Z"/>
          </g>
        </g>
        <g>
          <path class="cls-4" d="M29.17,37.08c-4.31,0-7.81-3.5-7.81-7.81s3.5-7.81,7.81-7.81c3.08,0,5.88,1.82,7.13,4.63.32.71,0,1.54-.71,1.85-.71.32-1.54,0-1.85-.71-.8-1.8-2.6-2.97-4.57-2.97-2.76,0-5,2.24-5,5s2.24,5,5,5c1.97,0,3.77-1.16,4.57-2.97.31-.71,1.15-1.03,1.85-.71s1.03,1.15.71,1.85c-1.25,2.81-4.05,4.63-7.13,4.63Z"/>
          <g>
            <path class="cls-4" d="M22.77,30.54c-.05,0-.1,0-.16,0-.77-.09-1.33-.78-1.24-1.55l1.36-12.27c.09-.77.77-1.33,1.55-1.24.77.09,1.33.78,1.24,1.55l-1.36,12.27c-.08.72-.69,1.25-1.39,1.25Z"/>
            <path class="cls-4" d="M26.88,24.57c-.39,0-.78-.16-1.06-.48-.51-.58-.45-1.47.13-1.98l7.1-6.21c.58-.51,1.47-.45,1.98.13.51.58.45,1.47-.13,1.98l-7.1,6.21c-.27.23-.6.35-.92.35Z"/>
            <path class="cls-4" d="M24.13,26.61c-.24,0-.48-.06-.7-.19-.67-.39-.9-1.24-.52-1.92l5.42-9.43c.39-.67,1.24-.9,1.92-.52.67.39.9,1.24.52,1.92l-5.42,9.43c-.26.45-.73.7-1.22.7Z"/>
          </g>
          <path class="cls-10" d="M29.14,28.09c.65,0,1.18.53,1.18,1.18s-.53,1.18-1.18,1.18-1.18-.53-1.18-1.18.53-1.18,1.18-1.18M29.14,26.09c-1.76,0-3.19,1.43-3.19,3.19s1.43,3.19,3.19,3.19,3.19-1.43,3.19-3.19-1.43-3.19-3.19-3.19h0Z"/>
          <path class="cls-10" d="M41.02,29.88h-8.78c-.33,0-.6-.27-.6-.6s.27-.6.6-.6h8.78c.33,0,.6.27.6.6s-.27.6-.6.6Z"/>
          <g>
            <path class="cls-10" d="M38.39,31.68c-.22,0-.4-.18-.4-.4v-1.93c0-.22.18-.4.4-.4s.4.18.4.4v1.93c0,.22-.18.4-.4.4Z"/>
            <path class="cls-10" d="M40.04,31.68c-.22,0-.4-.18-.4-.4v-1.93c0-.22.18-.4.4-.4s.4.18.4.4v1.93c0,.22-.18.4-.4.4Z"/>
          </g>
        </g>
        <path class="cls-10" d="M13.22,32.2c-.74,0-1.41-.52-1.57-1.27-.26-1.22-.39-2.47-.39-3.71,0-9.88,8.04-17.92,17.92-17.92s17.92,8.04,17.92,17.92c0,1.17-.12,2.35-.35,3.5-.17.87-1.02,1.43-1.89,1.26-.87-.17-1.43-1.02-1.26-1.89.19-.94.28-1.91.28-2.87,0-8.11-6.6-14.71-14.72-14.71s-14.71,6.6-14.71,14.71c0,1.02.11,2.05.32,3.05.18.87-.37,1.72-1.24,1.9-.11.02-.22.03-.33.03Z"/>
        <path class="cls-10" d="M55.11,28.94h-5.58c-.6,0-1.08-.48-1.08-1.08s.48-1.08,1.08-1.08h5.58c.6,0,1.08.48,1.08,1.08s-.48,1.08-1.08,1.08Z"/>
        <path class="cls-10" d="M29.22,7.75c-.6,0-1.08-.48-1.08-1.08V1.08C28.13.48,28.62,0,29.22,0s1.08.48,1.08,1.08v5.58c0,.6-.48,1.08-1.08,1.08Z"/>
        <path class="cls-10" d="M8.51,28.94H3c-.6,0-1.08-.48-1.08-1.08s.48-1.08,1.08-1.08h5.51c.6,0,1.08.48,1.08,1.08s-.48,1.08-1.08,1.08Z"/>
        <path class="cls-10" d="M44.32,14.11c-.28,0-.55-.11-.77-.32-.42-.42-.42-1.11,0-1.53l3.56-3.56c.42-.42,1.11-.42,1.53,0,.42.42.42,1.11,0,1.53l-3.56,3.56c-.21.21-.49.32-.77.32Z"/>
        <path class="cls-10" d="M14.03,14.03c-.27,0-.55-.1-.76-.31l-3.56-3.48c-.43-.42-.44-1.1-.02-1.53.42-.43,1.1-.43,1.53-.02l3.56,3.48c.43.42.44,1.1.02,1.53-.21.22-.49.33-.77.33Z"/>
      </g>
      <text class="cls-7" transform="translate(66.65 26) scale(.95 1)"><tspan class="cls-5" x="0" y="0">th</tspan><tspan class="cls-8" x="31.48" y="0">r</tspan><tspan class="cls-5" x="43.84" y="0">e</tspan><tspan class="cls-9" x="60.86" y="0">a</tspan><tspan class="cls-5" x="77.58" y="0">t</tspan><tspan class="cls-3" x="91.05" y="0">sy</tspan><tspan class="cls-1" x="122.56" y="0">s</tspan></text>
      <text class="cls-2" transform="translate(82.74 50.63) scale(.95 1)"><tspan class="cls-6" x="0" y="0">cade</tspan><tspan class="cls-11" x="67.88" y="0">m</tspan><tspan class="cls-6" x="94.37" y="0">y</tspan></text>
    </g>
  </g>
</svg>